<svg version="1.1" id="Layer_1" xmlns="http://www.w3.org/2000/svg" xmlns:xlink="http://www.w3.org/1999/xlink" x="0px" y="0px"
	 width="100%" viewBox="0 0 500 500" enable-background="new 0 0 500 500" xml:space="preserve">
<path fill="#FFFFFF" opacity="1.000000" stroke="none" 
	d="
M271.000000,501.000000 
	C182.000015,501.000000 93.500008,500.974609 5.000195,501.095825 
	C1.576093,501.100494 0.903036,500.423828 0.905301,497.000000 
	C1.013778,333.000092 1.013756,169.000122 0.905337,5.000245 
	C0.903074,1.576941 1.575799,0.903021 4.999878,0.905286 
	C168.999756,1.013775 332.999725,1.013761 496.999634,0.905353 
	C500.422668,0.903090 501.096985,1.575432 501.094727,4.999759 
	C500.986206,168.999634 500.986237,332.999603 501.094604,496.999512 
	C501.096893,500.422272 500.425598,501.102081 497.000275,501.096283 
	C421.833679,500.970154 346.666809,501.000000 271.000000,501.000000 
z"/>
<path fill="#0A0A0A" opacity="1.000000" stroke="none" 
	d="
M245.636154,189.272644 
	C250.928085,184.460556 251.488220,184.480194 256.350403,189.335602 
	C260.818726,193.797684 265.196747,198.354752 269.777679,202.697906 
	C272.812744,205.575424 273.086731,208.048843 269.924866,211.058395 
	C264.750488,215.983566 259.742004,221.086151 254.749466,226.197800 
	C252.283051,228.723053 250.068741,228.861801 247.538177,226.281219 
	C242.303055,220.942627 236.991653,215.677734 231.654129,210.441132 
	C229.089584,207.925110 229.235001,205.631485 231.758102,203.201950 
	C234.630508,200.436050 237.634552,197.758530 240.161789,194.696320 
	C242.610275,191.729523 244.384048,192.405197 246.631561,195.105392 
	C247.457352,195.253006 247.927490,195.417801 248.581451,196.030518 
	C252.878754,202.559784 250.167603,209.610077 251.270264,216.231369 
	C250.889221,212.527328 251.005341,208.829987 251.014008,205.133652 
	C251.018600,203.173111 251.352219,201.472916 254.058960,201.103363 
	C257.431274,201.712265 257.046265,204.596603 258.044983,206.558014 
	C258.573547,207.596054 259.000671,208.768127 260.483063,208.678589 
	C261.000885,208.647308 261.453796,208.327744 261.602600,207.835175 
	C262.049896,206.354431 260.957977,205.722153 259.948669,205.137787 
	C256.821991,203.327454 254.812042,200.515793 252.745102,197.309631 
	C251.638229,196.412811 250.597000,196.124069 249.296082,195.611725 
	C248.010162,194.772644 247.989380,193.545731 247.177673,192.404999 
	C246.722855,191.896271 246.518921,191.600189 246.067993,191.185791 
	C245.539368,190.624512 245.425873,190.141998 245.636154,189.272644 
z"/>
<path fill="#101010" opacity="1.000000" stroke="none" 
	d="
M123.455719,263.397827 
	C126.423981,264.216034 129.038025,264.570862 131.726639,264.141754 
	C133.503403,263.858154 134.467804,262.723114 134.311844,261.055908 
	C134.140945,259.228760 132.518112,260.114136 131.536362,260.057617 
	C122.086266,259.514008 120.278076,257.642334 120.252731,248.215302 
	C120.247360,246.216354 120.354874,244.210663 120.224609,242.220230 
	C120.079819,240.007767 120.605515,238.998688 123.180305,238.906601 
	C126.062325,238.803528 126.529495,240.000839 126.398262,242.406921 
	C126.253326,245.064117 126.402031,247.736069 126.365158,250.400787 
	C126.314346,254.072952 128.211212,255.202972 131.707092,255.234665 
	C135.829102,255.272018 134.494156,252.449646 134.602966,250.425476 
	C134.736862,247.933975 134.662537,245.429398 134.626450,242.931213 
	C134.596710,240.874115 134.333450,239.033707 137.544601,239.087173 
	C140.359909,239.134064 140.840515,240.273743 140.788513,242.695862 
	C140.659790,248.690048 140.921204,254.695908 140.684784,260.683624 
	C140.384964,268.276886 130.699295,273.080811 124.328720,268.823608 
	C122.473824,267.584076 122.132278,265.475250 123.455719,263.397827 
z"/>
<path fill="#0E0E0E" opacity="1.000000" stroke="none" 
	d="
M243.210693,243.487686 
	C243.315994,242.091721 242.828125,240.762955 243.824234,240.303604 
	C248.807510,238.005646 253.985474,237.106247 259.177582,239.501572 
	C263.772644,241.621445 265.539368,245.581268 265.396973,250.460663 
	C265.198517,257.259766 260.523346,261.864288 253.356705,261.416901 
	C249.780533,261.193634 249.031540,262.212158 249.330734,265.318176 
	C249.537964,267.469421 249.848129,269.509430 246.310623,269.487183 
	C242.870575,269.465546 243.178986,267.572449 243.193420,265.337128 
	C243.239456,258.203796 243.210495,251.069992 243.210693,243.487686 
z"/>
<path fill="#0A0A0A" opacity="1.000000" stroke="none" 
	d="
M390.800293,241.876343 
	C399.408447,235.190521 408.720093,238.174103 410.537354,247.737823 
	C411.021332,250.285049 410.663605,251.445328 407.755524,251.280472 
	C404.277222,251.083298 400.779114,251.229691 397.289642,251.241806 
	C396.489349,251.244583 395.472137,251.038223 395.108521,251.939255 
	C394.676392,253.009933 395.429626,253.848129 396.195282,254.506638 
	C398.788239,256.736694 401.791473,256.700104 404.567749,255.285400 
	C406.967377,254.062653 407.739380,255.219360 408.719452,256.974976 
	C410.101105,259.449829 408.126678,259.704407 406.668518,260.323486 
	C401.112396,262.682434 394.358704,261.598541 390.937469,257.814484 
	C387.227570,253.711136 387.093597,248.203568 390.800293,241.876343 
z"/>
<path fill="#0A0A0A" opacity="1.000000" stroke="none" 
	d="
M222.581085,240.453644 
	C231.415298,236.094666 238.642654,238.850998 240.637573,246.921875 
	C241.359940,249.844406 241.299911,251.716019 237.348099,251.304382 
	C234.051193,250.960983 230.689865,251.226944 227.357162,251.243088 
	C226.565598,251.246918 225.450195,251.034546 225.276199,252.001480 
	C225.157928,252.658737 225.647568,253.611786 226.156738,254.163773 
	C228.538773,256.746246 231.714661,256.813416 234.432388,255.454895 
	C237.373932,253.984482 238.442505,255.282486 239.159256,257.557281 
	C240.028122,260.314850 237.303299,260.205658 235.988434,260.672577 
	C229.786972,262.874725 223.193222,261.059448 220.216629,256.614807 
	C216.936371,251.716721 217.700821,245.851288 222.581085,240.453644 
z"/>
<path fill="#101010" opacity="1.000000" stroke="none" 
	d="
M80.739792,244.066650 
	C79.513474,244.142014 78.176369,245.387024 78.059700,243.665176 
	C77.940300,241.903152 78.179314,240.012192 80.247299,239.085785 
	C88.967606,235.179337 96.606857,239.914978 96.707855,249.319260 
	C96.714996,249.984192 96.808472,250.667252 96.692047,251.311203 
	C96.126892,254.436981 98.505226,259.331909 95.366409,260.421814 
	C90.033577,262.273621 83.835083,262.998169 78.454102,259.732727 
	C74.271957,257.194763 75.034035,250.948456 79.530510,248.774170 
	C82.033371,247.563889 84.711411,247.869232 87.356781,247.785889 
	C88.365799,247.754074 89.917343,248.615753 90.206261,246.867935 
	C90.450249,245.391922 89.494041,244.409164 88.055145,243.941360 
	C85.743347,243.189743 83.450294,243.582764 80.739792,244.066650 
z"/>
<path fill="#0C0C0C" opacity="1.000000" stroke="none" 
	d="
M291.000854,252.951523 
	C287.535461,260.679657 280.734528,263.540192 273.852844,260.507690 
	C268.016785,257.935974 265.412476,250.930649 268.067352,244.945221 
	C270.338104,239.825806 276.394287,237.124313 282.318481,238.588181 
	C288.911407,240.217300 291.613586,244.536743 291.000854,252.951523 
z"/>
<path fill="#0C0C0C" opacity="1.000000" stroke="none" 
	d="
M355.749512,238.971100 
	C362.965820,242.919617 365.223480,249.023544 362.121063,255.259018 
	C359.411072,260.705719 352.315826,263.126373 346.201538,260.690094 
	C340.633514,258.471527 337.771667,252.172440 339.654938,246.280762 
	C341.711090,239.848267 347.530396,237.107910 355.749512,238.971100 
z"/>
<path fill="#101010" opacity="1.000000" stroke="none" 
	d="
M143.203140,244.267365 
	C142.554276,240.224869 143.914795,238.557053 147.673904,238.694321 
	C149.814667,238.772476 151.985291,238.103104 154.122238,238.202896 
	C161.042892,238.526077 163.584885,241.237442 163.735580,248.218521 
	C163.803879,251.382812 163.590057,254.560135 163.796921,257.712341 
	C163.969315,260.339142 163.072418,261.093781 160.446213,261.129089 
	C157.702759,261.165894 157.528152,259.889923 157.604187,257.784332 
	C157.718369,254.622910 157.623932,251.454025 157.621155,248.288300 
	C157.618164,244.871231 155.796967,243.795395 152.533218,243.707001 
	C148.680283,243.602646 149.375626,246.092255 149.367706,248.327621 
	C149.357071,251.326706 149.338333,254.326202 149.374268,257.324890 
	C149.398514,259.347809 149.762527,261.142914 146.514755,261.150055 
	C143.320190,261.157074 143.083603,259.714600 143.165634,257.229492 
	C143.302994,253.068573 143.203156,248.899811 143.203140,244.267365 
z"/>
<path fill="#0C0C0C" opacity="1.000000" stroke="none" 
	d="
M376.623535,238.193176 
	C384.378876,239.613083 385.898621,241.430435 385.946259,248.894684 
	C385.961151,251.225327 386.168976,253.583679 385.882141,255.878540 
	C385.634552,257.859467 387.688660,261.006622 383.034149,261.135956 
	C378.441772,261.263550 380.086578,258.231659 379.936462,256.148254 
	C379.757446,253.663864 379.816650,251.154053 379.908691,248.660294 
	C380.044403,244.982895 378.244598,243.735031 374.713074,243.705505 
	C370.711792,243.672012 371.817352,246.403748 371.756622,248.497177 
	C371.669708,251.491318 371.630981,254.494568 371.767548,257.484985 
	C371.873230,259.799316 371.606628,261.121429 368.660156,261.133331 
	C365.725006,261.145172 365.485565,259.848602 365.547729,257.533234 
	C365.672760,252.875122 365.803864,248.197464 365.511200,243.554428 
	C365.300720,240.215179 366.214783,238.630920 369.750092,238.729202 
	C371.891327,238.788727 374.046021,238.364532 376.623535,238.193176 
z"/>
<path fill="#0E0E0E" opacity="1.000000" stroke="none" 
	d="
M117.901779,255.674438 
	C115.199333,261.215668 103.550240,263.657501 99.521439,259.942322 
	C98.524437,259.022949 99.005409,258.129333 99.393204,257.280121 
	C99.833664,256.315552 100.014351,255.127060 101.812561,255.661041 
	C104.012703,256.314331 106.360703,256.567902 108.663704,256.738037 
	C109.957726,256.833649 111.565681,256.540375 111.748741,254.894424 
	C111.906769,253.473526 110.500648,253.136520 109.387894,252.776840 
	C107.498459,252.166107 105.564606,251.665909 103.728210,250.924164 
	C100.803917,249.743027 99.225685,247.435303 99.433815,244.308746 
	C99.648254,241.087433 101.724869,239.415436 104.823051,238.655502 
	C108.188164,237.830109 111.433685,238.259720 114.655899,239.139191 
	C115.792915,239.449524 117.526581,239.632965 116.607933,241.700424 
	C115.997185,243.074951 115.556427,244.691055 113.497658,243.774094 
	C111.761848,243.000977 109.948997,243.007416 108.121735,243.028366 
	C107.070229,243.040405 105.991447,243.296326 105.834000,244.460114 
	C105.669968,245.672592 106.785576,246.101990 107.720871,246.433884 
	C109.436638,247.042755 111.224411,247.464996 112.904762,248.153839 
	C116.057106,249.446091 118.237473,251.518204 117.901779,255.674438 
z"/>
<path fill="#0E0E0E" opacity="1.000000" stroke="none" 
	d="
M167.838394,242.951004 
	C171.521301,238.497360 175.982651,237.402420 181.047119,238.700577 
	C182.485901,239.069366 185.204361,238.589783 184.540085,241.455475 
	C184.028671,243.661804 182.617584,244.297302 180.056412,243.749069 
	C174.732788,242.609558 171.502258,245.678085 172.041428,250.760071 
	C172.474533,254.842194 175.180954,256.961395 179.843597,256.071320 
	C182.537155,255.557114 184.251801,256.147064 184.580765,258.633057 
	C184.918869,261.188354 182.349258,260.814941 180.827896,261.126068 
	C175.977676,262.117981 171.388306,261.471252 168.241028,257.290436 
	C164.930099,252.892212 164.999268,248.062912 167.838394,242.951004 
z"/>
<path fill="#0E0E0E" opacity="1.000000" stroke="none" 
	d="
M309.807007,248.521057 
	C311.595825,240.207687 317.883057,236.460007 325.932343,238.877594 
	C327.124176,239.235550 329.414276,239.007019 328.599152,241.370865 
	C328.021667,243.045502 327.232086,244.678253 324.636810,243.853012 
	C320.561798,242.557312 317.307251,243.713867 316.173340,248.183670 
	C314.877319,253.292419 318.302765,256.981171 323.740326,256.098236 
	C326.297424,255.683014 328.187225,255.913269 328.537048,258.534729 
	C328.945770,261.597900 326.049225,260.871155 324.445526,261.153839 
	C316.886414,262.486328 312.584717,259.824951 310.057983,252.111588 
	C309.145966,250.906555 309.077240,249.912811 309.807007,248.521057 
z"/>
<path fill="#101010" opacity="1.000000" stroke="none" 
	d="
M209.236084,239.100616 
	C211.349319,239.056244 213.017563,239.118729 214.671875,238.994995 
	C216.922180,238.826691 216.951431,240.203461 216.939209,241.835983 
	C216.927017,243.467484 216.824310,245.089783 214.660049,244.706924 
	C209.509781,243.795853 209.482498,246.925323 209.719925,250.540161 
	C209.872116,252.857452 209.635498,255.199890 209.779770,257.518219 
	C209.925598,259.861694 209.560471,261.125916 206.653580,261.140259 
	C203.737778,261.154602 203.457718,259.879303 203.532120,257.552063 
	C203.664841,253.400421 203.946609,249.197357 203.466949,245.097595 
	C202.951111,240.688660 204.705963,239.063858 209.236084,239.100616 
z"/>
<path fill="#0A0A0A" opacity="1.000000" stroke="none" 
	d="
M336.945953,245.001465 
	C336.945892,249.476578 336.885010,253.454453 336.970245,257.429199 
	C337.016357,259.579224 337.086548,261.152435 334.008423,261.133057 
	C331.226868,261.115570 330.781219,260.098358 330.817200,257.679047 
	C330.937927,249.561996 330.937073,241.440948 330.817596,233.323868 
	C330.782043,230.909790 331.218140,229.882568 334.005585,229.866638 
	C337.079559,229.849091 337.022644,231.413834 336.970184,233.567947 
	C336.881470,237.210983 336.945923,240.857742 336.945953,245.001465 
z"/>
<path fill="#0A0A0A" opacity="1.000000" stroke="none" 
	d="
M414.154755,260.964355 
	C412.248688,254.551956 413.408295,248.099182 413.017365,241.700363 
	C412.917603,240.067291 413.931946,239.769394 415.166107,239.668167 
	C417.972260,239.437973 420.789764,239.316101 423.585693,239.000168 
	C425.911713,238.737320 426.333160,239.839279 426.321259,241.877533 
	C426.309204,243.944962 425.758667,245.097565 423.509186,244.730988 
	C419.579529,244.090561 418.643341,246.014648 419.052216,249.535995 
	C419.318695,251.830734 418.857758,254.213654 419.158081,256.499878 
	C419.643951,260.198303 418.401550,261.777344 414.154755,260.964355 
z"/>
<path fill="#1F1F1F" opacity="1.000000" stroke="none" 
	d="
M309.706970,248.596603 
	C310.108582,249.160172 310.138214,250.096497 310.130280,251.382553 
	C305.558716,253.110001 300.891174,252.622345 296.263916,252.761124 
	C294.188324,252.823380 292.879028,252.614441 292.873871,249.918091 
	C292.868683,247.196152 294.227112,246.871048 296.267792,247.142288 
	C300.627380,247.721771 305.371826,245.572693 309.706970,248.596603 
z"/>
<path fill="#1F1F1F" opacity="1.000000" stroke="none" 
	d="
M199.358582,247.135193 
	C202.422287,247.934052 201.442642,250.056778 201.163132,251.603470 
	C200.831024,253.441162 199.030289,252.668640 197.846481,252.707520 
	C194.882309,252.804886 191.909897,252.658676 188.946335,252.765045 
	C186.813217,252.841614 186.086899,252.003098 186.073898,249.874512 
	C186.060272,247.639862 186.993530,247.034500 189.040100,247.100983 
	C192.333725,247.207962 195.633377,247.129593 199.358582,247.135193 
z"/>
<path fill="#E0E0E0" opacity="1.000000" stroke="none" 
	d="
M246.924438,192.574707 
	C247.613998,192.741501 248.301224,193.290649 249.067047,194.098862 
	C249.465073,195.072693 249.315094,195.669464 248.175064,196.125244 
	C247.309631,196.149338 247.068817,196.012817 246.931091,195.470657 
	C246.927429,194.484756 246.924774,193.720901 246.924438,192.574707 
z"/>
<path fill="#E0E0E0" opacity="1.000000" stroke="none" 
	d="
M245.505966,188.954071 
	C245.772720,189.401489 245.753494,189.877640 245.777618,190.710632 
	C244.253204,190.766800 243.695251,190.175003 245.505966,188.954071 
z"/>
<path fill="#FFFFFF" opacity="1.000000" stroke="none" 
	d="
M247.720032,196.499207 
	C248.055725,195.767761 248.456940,195.433243 249.001892,194.728333 
	C250.310852,194.669861 251.476059,194.981796 252.845596,195.594513 
	C253.675125,198.328445 255.515686,200.328293 255.548416,203.447479 
	C254.272171,203.167511 252.498856,201.162186 252.658310,204.725662 
	C252.809097,208.096085 251.638519,211.621826 253.918015,214.817307 
	C254.886475,216.174927 254.314026,217.713242 252.949036,218.727570 
	C251.940979,219.476700 250.792618,219.521408 249.674744,218.934906 
	C248.354324,218.242096 247.399963,216.815750 248.051514,215.684998 
	C251.727631,209.305191 249.889160,203.123672 247.720032,196.499207 
z"/>
<path fill="#E0E0E0" opacity="1.000000" stroke="none" 
	d="
M255.538773,204.140594 
	C255.412979,201.293320 252.506104,199.646484 253.023880,196.345261 
	C255.374359,199.302734 256.683655,203.652939 261.763489,204.387085 
	C263.059723,204.574417 263.697021,206.140228 263.406464,207.646973 
	C263.127960,209.091339 262.283203,210.044662 260.809875,210.333633 
	C259.089294,210.671112 257.817322,209.946136 257.196289,208.388718 
	C256.658051,207.038879 256.907104,205.375473 255.538773,204.140594 
z"/>
<path fill="#F7F7F7" opacity="1.000000" stroke="none" 
	d="
M258.497437,253.166870 
	C256.372040,256.368317 253.485001,256.526917 250.707001,255.731201 
	C248.308701,255.044235 249.247849,252.555542 249.422150,250.960297 
	C249.733444,248.111252 247.065674,243.321365 253.461502,243.764740 
	C258.087433,244.085434 259.605164,246.624146 258.497437,253.166870 
z"/>
<path fill="#E0E0E0" opacity="1.000000" stroke="none" 
	d="
M403.893005,247.096069 
	C401.724243,247.526917 399.763245,247.684265 397.806580,247.641708 
	C396.789795,247.619598 395.247284,248.271332 394.962463,246.637039 
	C394.749115,245.412888 395.748779,244.462799 396.788696,243.952957 
	C400.165649,242.297424 402.786926,242.867630 403.893005,247.096069 
z"/>
<path fill="#E0E0E0" opacity="1.000000" stroke="none" 
	d="
M229.116791,243.115601 
	C230.440155,243.330612 231.457718,243.454666 232.311981,243.895340 
	C233.502228,244.509354 234.750656,245.502472 234.222351,246.959808 
	C233.725433,248.330521 232.171906,247.471832 231.100372,247.661621 
	C230.616974,247.747238 230.083878,247.769791 229.611359,247.658875 
	C228.108444,247.306091 225.692520,248.705353 225.241058,246.745178 
	C224.797775,244.820557 226.955475,243.804169 229.116791,243.115601 
z"/>
<path fill="#E0E0E0" opacity="1.000000" stroke="none" 
	d="
M82.682968,252.707550 
	C83.712128,252.167435 84.503868,251.668427 85.257744,251.720245 
	C87.250847,251.857300 90.137672,250.121140 90.613480,253.916000 
	C90.867165,255.939301 90.022293,257.131775 87.849289,256.911713 
	C85.317589,256.655365 81.787491,257.686829 82.682968,252.707550 
z"/>
<path fill="#F7F7F7" opacity="1.000000" stroke="none" 
	d="
M273.163269,249.977631 
	C273.807831,245.139114 276.391296,243.099869 280.788208,244.006210 
	C284.333923,244.737091 285.416443,247.444336 285.063904,250.787415 
	C284.745728,253.804153 283.017151,255.669098 279.993103,255.981705 
	C275.927094,256.402008 273.869385,254.162079 273.163269,249.977631 
z"/>
<path fill="#F7F7F7" opacity="1.000000" stroke="none" 
	d="
M351.053955,243.794556 
	C355.835449,244.194275 357.506714,246.815857 357.035980,250.920303 
	C356.662781,254.174332 354.627472,255.941284 351.373596,256.035919 
	C347.801300,256.139832 345.692963,254.080765 345.306885,250.736298 
	C344.869659,246.948380 346.531708,244.323730 351.053955,243.794556 
z"/>
</svg>